<svg xmlns="http://www.w3.org/2000/svg" width="56" height="56" viewBox="0 0 56 56" fill="none">
  <rect width="56" height="56" rx="18" fill="#7CE7B8"/>
  <path d="M29.5 18.5C27.752 18.5 26.25 20.002 26.25 21.75V34.75C26.25 36.498 27.752 38 29.5 38H36.75C38.498 38 40 36.498 40 34.75V27.5C40 25.752 38.498 24.25 36.75 24.25H30.5C30.223 24.25 30 24.027 30 23.75C30 23.473 30.223 23.25 30.5 23.25H36.75C39.143 23.25 41 25.107 41 27.5V34.75C41 37.143 39.143 39 36.75 39H29.5C27.107 39 25.25 37.143 25.25 34.75V21.75C25.25 19.357 27.107 17.5 29.5 17.5H36.75C37.027 17.5 37.25 17.723 37.25 18C37.25 18.277 37.027 18.5 36.75 18.5H29.5Z" fill="#083226"/>
  <path d="M19.25 17.5H24.5C27.247 17.5 29.5 19.753 29.5 22.5V33.5C29.5 36.247 27.247 38.5 24.5 38.5H19.25C18.973 38.5 18.75 38.277 18.75 38C18.75 37.723 18.973 37.5 19.25 37.5H24.5C26.156 37.5 27.5 36.156 27.5 34.5V22.5C27.5 20.844 26.156 19.5 24.5 19.5H19.25C18.973 19.5 18.75 19.277 18.75 19C18.75 18.723 18.973 18.5 19.25 18.5Z" fill="#083226"/>
</svg>
